<svg xmlns="http://www.w3.org/2000/svg" xmlns:xlink="http://www.w3.org/1999/xlink" width="256" height="64" viewBox="0 0 256 64"><defs><linearGradient id="a"><stop offset="0" stop-color="#ffff5b"/><stop offset=".602" stop-color="#ffff5b" stop-opacity=".563"/><stop offset="1" stop-color="#ffff5b" stop-opacity="0"/></linearGradient><radialGradient xlink:href="#a" id="b" cx="81.182" cy="8.608" fx="81.182" fy="8.608" r="8.142" gradientUnits="userSpaceOnUse"/></defs><circle cx="81.182" cy="8.608" r="8.142" fill="url(#b)"/><circle cx="81.199" cy="8.523" r="4.821" fill="#ffff2d"/><g style="line-height:25px;-inkscape-font-specification:'Consolas, Bold';font-variant-ligatures:normal;font-variant-caps:normal;font-variant-numeric:normal;font-feature-settings:normal;text-align:start" font-weight="700" font-size="64" font-family="Consolas" letter-spacing="0" word-spacing="0" fill="#fff"><path d="M6.536 49.562V8.718H31.13v6.5H14.349v10.156h16v6.344h-16v11.344h16.78v6.5zm58.478-16.438q0 4.375-1.25 7.563-1.219 3.187-3.438 5.312-2.187 2.094-5.187 3.125-3 1-6.531 1-1.188 0-2.375-.156-1.188-.156-2.157-.406v12.406h-7.625V17.812h6.594l.188 4.687q.968-1.218 2-2.218 1.062-1 2.28-1.688 1.22-.719 2.626-1.094 1.406-.375 3.156-.375 2.813 0 5 1.125 2.188 1.125 3.656 3.22 1.5 2.062 2.282 5.03.78 2.938.78 6.625zm-8 .313q0-2.625-.375-4.469-.375-1.844-1.094-3.031-.687-1.188-1.719-1.719-1-.562-2.312-.562-1.938 0-3.719 1.562-1.75 1.563-3.719 4.25v13.875q.907.344 2.219.563 1.344.218 2.719.218 1.812 0 3.281-.75 1.5-.75 2.531-2.125 1.063-1.375 1.625-3.343.563-2 .563-4.469zm21.009-9.687h-8.97v-5.938h16.782v25.812h9.156v5.938h-27.03v-5.938h10.062zm49.572 9.374q0 4.375-1.25 7.563-1.218 3.187-3.437 5.312-2.188 2.094-5.188 3.125-3 1-6.53 1-1.188 0-2.376-.156-1.187-.156-2.156-.406v12.406h-7.625V17.812h6.594l.187 4.687q.969-1.218 2-2.218 1.063-1 2.281-1.688 1.22-.719 2.625-1.094 1.407-.375 3.157-.375 2.812 0 5 1.125 2.187 1.125 3.656 3.22 1.5 2.062 2.281 5.03.781 2.938.781 6.625zm-8 .313q0-2.625-.375-4.469-.375-1.844-1.093-3.031-.688-1.188-1.72-1.719-1-.562-2.312-.562-1.937 0-3.718 1.562-1.75 1.563-3.72 4.25v13.875q.907.344 2.22.563 1.343.218 2.718.218 1.813 0 3.282-.75 1.5-.75 2.53-2.125 1.063-1.375 1.626-3.343.562-2 .562-4.469zm32.771 12.656q-1.656 4.125-3.468 7.219-1.782 3.125-3.938 5.187-2.156 2.094-4.812 3.125-2.625 1.063-5.907 1.063-.78 0-1.718-.094-.907-.062-1.875-.219v-6.468q.375.062.843.125.5.093 1.032.125.53.062 1.062.093.563.032 1.031.032 1.313 0 2.438-.5 1.125-.5 2.062-1.407.97-.875 1.75-2.125.782-1.218 1.375-2.687l-12.593-31.75h8.5l6.593 18 1.97 5.812 1.937-5.562 6.656-18.25h8.187z"/><path d="M171.936 11.343h-8.969V5.406h16.782v38.218h9.156v5.938h-27.031v-5.938h10.062zm48.544 22.094c0 2.5-.354 4.792-1.063 6.875-.709 2.063-1.73 3.833-3.063 5.312-1.333 1.48-2.969 2.626-4.906 3.438-1.937.813-4.146 1.219-6.625 1.219-2.354 0-4.458-.344-6.313-1.032-1.853-.687-3.426-1.707-4.718-3.062-1.292-1.375-2.282-3.084-2.97-5.125-.687-2.063-1.03-4.459-1.03-7.188 0-2.52.354-4.812 1.062-6.875.73-2.062 1.76-3.822 3.094-5.28 1.354-1.459 3-2.584 4.937-3.376 1.938-.813 4.126-1.219 6.563-1.219 2.375 0 4.49.354 6.344 1.063 1.853.687 3.426 1.719 4.718 3.094 1.292 1.375 2.271 3.083 2.938 5.125.687 2.02 1.031 4.364 1.031 7.031zm-7.938.187c0-3.291-.625-5.76-1.875-7.406-1.23-1.667-3.053-2.5-5.47-2.5-1.333 0-2.468.26-3.405.781a6.547 6.547 0 0 0-2.313 2.157c-.604.895-1.052 1.947-1.344 3.156-.27 1.208-.406 2.5-.406 3.875 0 3.313.667 5.813 2 7.5 1.333 1.667 3.156 2.5 5.469 2.5 1.27 0 2.375-.25 3.312-.75a6.373 6.373 0 0 0 2.282-2.125c.583-.917 1.02-1.99 1.312-3.219.292-1.23.438-2.552.438-3.969zm31.09 15.938V28.874c0-3.479-1.292-5.218-3.875-5.218-1.291 0-2.53.52-3.718 1.562-1.167 1.042-2.407 2.459-3.72 4.25v20.094h-7.624v-31.75h6.594l.187 4.687a23.24 23.24 0 0 1 2-2.218 11.78 11.78 0 0 1 2.281-1.688c.813-.48 1.688-.844 2.625-1.094.938-.25 1.99-.375 3.157-.375 1.625 0 3.041.271 4.25.813a7.97 7.97 0 0 1 3.03 2.25c.813.958 1.418 2.125 1.813 3.5.417 1.354.625 2.875.625 4.562v21.313z"/></g></svg>